# File produced by Open Asset Import Library (http://www.assimp.sf.net)
# (assimp v3.0.1262)

mtllib Untitled.stl.obj.mtl

# 132 vertex positions
v  34.9406 112.101 6.92759e-23
v  30.4065 91.9813 1.98654e-20
v  30.4065 107.356 1.98654e-20
v  30.4065 91.9813 1.98654e-20
v  34.9406 112.101 6.92759e-23
v  34.3836 87.4887 1.68098e-17
v  34.3836 87.4887 1.68098e-17
v  34.9406 112.101 6.92759e-23
v  39.0711 87.4887 1.68098e-17
v  39.0711 87.4887 1.68098e-17
v  34.9406 112.101 6.92759e-23
v  40.0656 112.101 6.92759e-23
v  39.0711 87.4887 1.68098e-17
v  40.0656 112.101 6.92759e-23
v  50.3278 82.9829 7.09804e-15
v  50.3278 82.9829 7.09804e-15
v  40.0656 112.101 6.92759e-23
v  50.0585 117.295 0
v  50.3278 82.9829 7.09804e-15
v  50.0585 117.295 0
v  88.996 117.295 0
v  50.3278 82.9829 7.09804e-15
v  88.996 117.295 0
v  50.4208 48.781 -6.85356e-18
v  34.375 44.4236 -7.11721e-15
v  29.7892 25.2396 7.10915e-15
v  29.7892 40.1771 7.10915e-15
v  29.7892 25.2396 7.10915e-15
v  34.375 44.4236 -7.11721e-15
v  34.5759 19.8779 1.06297e-20
v  34.5759 19.8779 1.06297e-20
v  34.375 44.4236 -7.11721e-15
v  39.5759 44.4236 -7.11721e-15
v  34.5759 19.8779 1.06297e-20
v  39.5759 44.4236 -7.11721e-15
v  39.5759 19.8779 1.06297e-20
v  39.5759 19.8779 1.06297e-20
v  39.5759 44.4236 -7.11721e-15
v  50.4208 48.781 -6.85356e-18
v  39.5759 19.8779 1.06297e-20
v  50.4208 48.781 -6.85356e-18
v  49.5051 13.832 -4.57751e-18
v  49.5051 13.832 -4.57751e-18
v  50.4208 48.781 -6.85356e-18
v  89.0088 13.832 -4.57751e-18
v  89.0088 13.832 -4.57751e-18
v  50.4208 48.781 -6.85356e-18
v  88.996 117.295 0
v  89.0088 13.832 -4.57751e-18
v  88.996 117.295 0
v  102.029 110.797 0
v  89.0088 13.832 -4.57751e-18
v  102.029 110.797 0
v  102.029 104.985 0
v  89.0088 13.832 -4.57751e-18
v  102.029 104.985 0
v  102.111 20.6071 7.10332e-15
v  102.111 20.6071 7.10332e-15
v  102.029 104.985 0
v  102.111 26.6696 7.10332e-15
v  20.482 78.1914 -2.36227e-17
v  16.2714 58.1548 -7.07969e-15
v  16.2714 73.4048 -7.07969e-15
v  16.2714 58.1548 -7.07969e-15
v  20.482 78.1914 -2.36227e-17
v  20.3479 53.4172 5.59938e-21
v  20.3479 53.4172 5.59938e-21
v  20.482 78.1914 -2.36227e-17
v  25.4729 53.4172 5.59938e-21
v  25.4729 53.4172 5.59938e-21
v  20.482 78.1914 -2.36227e-17
v  25.4729 78.1914 -2.36227e-17
v  25.4729 53.4172 5.59938e-21
v  25.4729 78.1914 -2.36227e-17
v  50.3278 82.9829 7.09804e-15
v  25.4729 53.4172 5.59938e-21
v  50.3278 82.9829 7.09804e-15
v  50.4208 48.781 -6.85356e-18
v  164.591 104.985 0
v  102.111 26.6696 7.10332e-15
v  102.029 104.985 0
v  102.111 26.6696 7.10332e-15
v  164.591 104.985 0
v  128.111 26.6696 7.10332e-15
v  128.111 26.6696 7.10332e-15
v  164.591 104.985 0
v  128.111 22.3715 7.10332e-15
v  128.111 22.3715 7.10332e-15
v  164.591 104.985 0
v  132.249 17.9412 0
v  132.249 17.9412 0
v  164.591 104.985 0
v  148.187 17.9412 0
v  148.187 17.9412 0
v  164.591 104.985 0
v  152.495 26.6696 0
v  152.495 26.6696 0
v  164.591 104.985 0
v  176.903 31.1306 0
v  176.903 31.1306 0
v  164.591 104.985 0
v  176.984 98.2073 0
v  176.903 31.1306 0
v  176.984 98.2073 0
v  176.984 92.4573 0
v  176.903 31.1306 0
v  176.984 92.4573 0
v  188.591 31.1306 0
v  188.591 31.1306 0
v  176.984 92.4573 0
v  202.146 83.0152 0
v  188.591 31.1306 0
v  202.146 83.0152 0
v  201.793 46.3756 0
v  201.793 46.3756 0
v  202.146 83.0152 0
v  212.032 46.3756 0
v  212.032 46.3756 0
v  202.146 83.0152 0
v  212.271 83.0152 0
v  212.032 46.3756 0
v  212.271 83.0152 0
v  220.107 52.7906 0
v  220.107 52.7906 0
v  212.271 83.0152 0
v  220.107 76.6031 0
v  201.793 38.2506 0
v  188.591 31.1306 0
v  201.793 46.3756 0
v  152.495 22.2946 0
v  148.187 17.9412 0
v  152.495 26.6696 0

# 0 UV coordinates

# 132 vertex normals
vn 4.15189e-18 -2.01324e-17 -1
vn 4.15189e-18 -2.01324e-17 -1
vn 4.15189e-18 -2.01324e-17 -1
vn 4.15189e-18 -2.01324e-17 -1
vn 4.15189e-18 -2.01324e-17 -1
vn 4.15189e-18 -2.01324e-17 -1
vn 4.15189e-18 -2.01324e-17 -1
vn 4.15189e-18 -2.01324e-17 -1
vn 4.15189e-18 -2.01324e-17 -1
vn 4.15189e-18 -2.01324e-17 -1
vn 4.15189e-18 -2.01324e-17 -1
vn 4.15189e-18 -2.01324e-17 -1
vn 4.15189e-18 -2.01324e-17 -1
vn 4.15189e-18 -2.01324e-17 -1
vn 4.15189e-18 -2.01324e-17 -1
vn 4.15189e-18 -2.01324e-17 -1
vn 4.15189e-18 -2.01324e-17 -1
vn 4.15189e-18 -2.01324e-17 -1
vn 4.15189e-18 -2.01324e-17 -1
vn 4.15189e-18 -2.01324e-17 -1
vn 4.15189e-18 -2.01324e-17 -1
vn 4.15189e-18 -2.01324e-17 -1
vn 4.15189e-18 -2.01324e-17 -1
vn 4.15189e-18 -2.01324e-17 -1
vn 4.15189e-18 -2.01324e-17 -1
vn 4.15189e-18 -2.01324e-17 -1
vn 4.15189e-18 -2.01324e-17 -1
vn 4.15189e-18 -2.01324e-17 -1
vn 4.15189e-18 -2.01324e-17 -1
vn 4.15189e-18 -2.01324e-17 -1
vn 4.15189e-18 -2.01324e-17 -1
vn 4.15189e-18 -2.01324e-17 -1
vn 4.15189e-18 -2.01324e-17 -1
vn 4.15189e-18 -2.01324e-17 -1
vn 4.15189e-18 -2.01324e-17 -1
vn 4.15189e-18 -2.01324e-17 -1
vn 4.15189e-18 -2.01324e-17 -1
vn 4.15189e-18 -2.01324e-17 -1
vn 4.15189e-18 -2.01324e-17 -1
vn 4.15189e-18 -2.01324e-17 -1
vn 4.15189e-18 -2.01324e-17 -1
vn 4.15189e-18 -2.01324e-17 -1
vn 4.15189e-18 -2.01324e-17 -1
vn 4.15189e-18 -2.01324e-17 -1
vn 4.15189e-18 -2.01324e-17 -1
vn 4.15189e-18 -2.01324e-17 -1
vn 4.15189e-18 -2.01324e-17 -1
vn 4.15189e-18 -2.01324e-17 -1
vn 4.15189e-18 -2.01324e-17 -1
vn 4.15189e-18 -2.01324e-17 -1
vn 4.15189e-18 -2.01324e-17 -1
vn 4.15189e-18 -2.01324e-17 -1
vn 4.15189e-18 -2.01324e-17 -1
vn 4.15189e-18 -2.01324e-17 -1
vn 4.15189e-18 -2.01324e-17 -1
vn 4.15189e-18 -2.01324e-17 -1
vn 4.15189e-18 -2.01324e-17 -1
vn 4.15189e-18 -2.01324e-17 -1
vn 4.15189e-18 -2.01324e-17 -1
vn 4.15189e-18 -2.01324e-17 -1
vn 4.15189e-18 -2.01324e-17 -1
vn 4.15189e-18 -2.01324e-17 -1
vn 4.15189e-18 -2.01324e-17 -1
vn 4.15189e-18 -2.01324e-17 -1
vn 4.15189e-18 -2.01324e-17 -1
vn 4.15189e-18 -2.01324e-17 -1
vn 4.15189e-18 -2.01324e-17 -1
vn 4.15189e-18 -2.01324e-17 -1
vn 4.15189e-18 -2.01324e-17 -1
vn 4.15189e-18 -2.01324e-17 -1
vn 4.15189e-18 -2.01324e-17 -1
vn 4.15189e-18 -2.01324e-17 -1
vn 4.15189e-18 -2.01324e-17 -1
vn 4.15189e-18 -2.01324e-17 -1
vn 4.15189e-18 -2.01324e-17 -1
vn 4.15189e-18 -2.01324e-17 -1
vn 4.15189e-18 -2.01324e-17 -1
vn 4.15189e-18 -2.01324e-17 -1
vn 4.15189e-18 -2.01324e-17 -1
vn 4.15189e-18 -2.01324e-17 -1
vn 4.15189e-18 -2.01324e-17 -1
vn 4.15189e-18 -2.01324e-17 -1
vn 4.15189e-18 -2.01324e-17 -1
vn 4.15189e-18 -2.01324e-17 -1
vn 4.15189e-18 -2.01324e-17 -1
vn 4.15189e-18 -2.01324e-17 -1
vn 4.15189e-18 -2.01324e-17 -1
vn 4.15189e-18 -2.01324e-17 -1
vn 4.15189e-18 -2.01324e-17 -1
vn 4.15189e-18 -2.01324e-17 -1
vn 4.15189e-18 -2.01324e-17 -1
vn 4.15189e-18 -2.01324e-17 -1
vn 4.15189e-18 -2.01324e-17 -1
vn 4.15189e-18 -2.01324e-17 -1
vn 4.15189e-18 -2.01324e-17 -1
vn 4.15189e-18 -2.01324e-17 -1
vn 4.15189e-18 -2.01324e-17 -1
vn 4.15189e-18 -2.01324e-17 -1
vn 4.15189e-18 -2.01324e-17 -1
vn 4.15189e-18 -2.01324e-17 -1
vn 4.15189e-18 -2.01324e-17 -1
vn 4.15189e-18 -2.01324e-17 -1
vn 4.15189e-18 -2.01324e-17 -1
vn 4.15189e-18 -2.01324e-17 -1
vn 4.15189e-18 -2.01324e-17 -1
vn 4.15189e-18 -2.01324e-17 -1
vn 4.15189e-18 -2.01324e-17 -1
vn 4.15189e-18 -2.01324e-17 -1
vn 4.15189e-18 -2.01324e-17 -1
vn 4.15189e-18 -2.01324e-17 -1
vn 4.15189e-18 -2.01324e-17 -1
vn 4.15189e-18 -2.01324e-17 -1
vn 4.15189e-18 -2.01324e-17 -1
vn 4.15189e-18 -2.01324e-17 -1
vn 4.15189e-18 -2.01324e-17 -1
vn 4.15189e-18 -2.01324e-17 -1
vn 4.15189e-18 -2.01324e-17 -1
vn 4.15189e-18 -2.01324e-17 -1
vn 4.15189e-18 -2.01324e-17 -1
vn 4.15189e-18 -2.01324e-17 -1
vn 4.15189e-18 -2.01324e-17 -1
vn 4.15189e-18 -2.01324e-17 -1
vn 4.15189e-18 -2.01324e-17 -1
vn 4.15189e-18 -2.01324e-17 -1
vn 4.15189e-18 -2.01324e-17 -1
vn 4.15189e-18 -2.01324e-17 -1
vn 4.15189e-18 -2.01324e-17 -1
vn 4.15189e-18 -2.01324e-17 -1
vn 4.15189e-18 -2.01324e-17 -1
vn 4.15189e-18 -2.01324e-17 -1
vn 4.15189e-18 -2.01324e-17 -1
vn 4.15189e-18 -2.01324e-17 -1

# Mesh '<STL_BINARY>' with 44 faces
g <STL_BINARY>
usemtl DefaultMaterial
f  1//1 2//2 3//3
f  4//4 5//5 6//6
f  7//7 8//8 9//9
f  10//10 11//11 12//12
f  13//13 14//14 15//15
f  16//16 17//17 18//18
f  19//19 20//20 21//21
f  22//22 23//23 24//24
f  25//25 26//26 27//27
f  28//28 29//29 30//30
f  31//31 32//32 33//33
f  34//34 35//35 36//36
f  37//37 38//38 39//39
f  40//40 41//41 42//42
f  43//43 44//44 45//45
f  46//46 47//47 48//48
f  49//49 50//50 51//51
f  52//52 53//53 54//54
f  55//55 56//56 57//57
f  58//58 59//59 60//60
f  61//61 62//62 63//63
f  64//64 65//65 66//66
f  67//67 68//68 69//69
f  70//70 71//71 72//72
f  73//73 74//74 75//75
f  76//76 77//77 78//78
f  79//79 80//80 81//81
f  82//82 83//83 84//84
f  85//85 86//86 87//87
f  88//88 89//89 90//90
f  91//91 92//92 93//93
f  94//94 95//95 96//96
f  97//97 98//98 99//99
f  100//100 101//101 102//102
f  103//103 104//104 105//105
f  106//106 107//107 108//108
f  109//109 110//110 111//111
f  112//112 113//113 114//114
f  115//115 116//116 117//117
f  118//118 119//119 120//120
f  121//121 122//122 123//123
f  124//124 125//125 126//126
f  127//127 128//128 129//129
f  130//130 131//131 132//132

